<svg id="Capa_1" data-name="Capa 1" xmlns="http://www.w3.org/2000/svg" viewBox="0 0 1080 1080"><defs><style>.cls-1{fill:#343434;}</style></defs><path class="cls-1" d="M57.33,866.48c6.71-9.6,12.22-20.37,20.31-28.62q63.55-64.8,128.27-128.46c24.57-24.22,32.55-51.64,23.37-85.51C209.08,549.34,256,475,332.2,458.85c72.61-15.41,145.49,35.39,157.49,109.88,1,6.15,1.3,12.41,2,19.13,8.52,1.23,16.88,2,25.07,3.66,63.21,12.53,108.38,69.2,106.86,133.84S574.2,843.92,510.12,853.67a128,128,0,0,1-55.84-3.35c-31.7-9.25-58.61-1.4-81.57,21.83-12.48,12.61-22.55,14.25-31.63,5.51s-7.12-20,5.25-32.34c33.89-33.8,73.55-43.51,119.86-31,61.38,16.54,121.1-31.07,119.75-94.4-1.18-55.28-49.42-98.11-104.6-92.86-2.81.27-5.62.58-8.44.67-13.41.42-20.73-7.32-20.7-20.8,0-12.77,1.22-25.95-1.45-38.23-11.37-52.35-63.87-84.66-115-71.91-52.47,13.08-84.19,65.28-70,117.2,13.09,47.93,1.4,88-33.72,122.59-43.58,42.88-86.56,86.37-129.78,129.62-2.61,2.6-5,5.37-6.67,7.1l112.9,112.89c3.54-4.39,7.4-10.19,12.26-15,8.48-8.34,19.2-8.4,26.87-.95s7.62,18.88-.61,27.66c-9.63,10.27-19.39,20.44-33.44,24.78H196.58c-9.77-7-20.6-12.84-29.13-21.09q-45.24-43.76-89-89C70.18,904,64.3,893.2,57.33,883.42Z"/><path class="cls-1" d="M586.56,494.87c-14.32-3-27.85-4.49-40.49-8.65C477.5,463.64,439.44,390.7,460,322.34c21-69.9,92.4-110,162.91-91,17.48,4.71,34.93,6.73,51.45-1.05,11.11-5.23,22.1-12.19,30.83-20.74,45.5-44.51,90.25-89.78,135.28-134.78,20.9-20.88,44.1-21,65-.09q50,49.83,99.78,99.77c20.9,20.94,21,44.26.22,65Q938.3,306.69,871,373.78c-23.74,23.53-31.31,50.5-22.45,83.16,23.78,87.66-43.78,172-134.35,168.46-65.39-2.52-120.65-54.77-126.56-119.66C587.32,502,586.91,498.3,586.56,494.87ZM870.69,94.2c-2.64,4-4.27,7.61-6.89,10.24C821.54,146.88,778.68,188.73,737,231.68c-35.6,36.65-76.31,48.93-126.38,35.58-69.69-18.58-133.4,46.74-115.2,116.48,12,45.83,54.43,75.45,101.83,71.05,23.55-2.19,29.79,4.49,28.18,28.13-.67,9.88-.41,20.2,1.72,29.82a95.34,95.34,0,1,0,185.17-45.3C799.35,419.88,811,380,845.81,345.69,890,302.12,933.6,257.87,977.7,214.18c5.58-5.52,5.59-8.71,0-14.21-32.83-32.35-65.29-65.08-97.9-97.65C877.85,100.36,875.67,98.62,870.69,94.2Z"/><path class="cls-1" d="M249.9,403.41c3.75,0,7.53-.22,11.27,0,10.19.74,17.75,8.51,18,18.22.19,9.17-6.69,17.88-16.34,18.82a134.55,134.55,0,0,1-26.24-.13,18.63,18.63,0,0,1-17.05-19.14c.35-10.07,8.16-17.5,19.12-18,3.75-.18,7.52,0,11.28,0Z"/><path class="cls-1" d="M437.79,252.11c0,4.07.26,8.16-.06,12.2-.74,9.6-7.53,16.47-16.66,17.21-9.54.78-18.21-4.32-19.53-13.67a123.55,123.55,0,0,1-.54-30.74c1.08-9.73,10.1-15.29,19.92-14.46,9.12.77,15.87,7.62,16.64,17.27.33,4,.06,8.13.06,12.19Z"/><path class="cls-1" d="M295.94,317.68c3.78-4.9,6.83-10.74,11.54-14.47,5.86-4.63,13.43-4.12,19.23.59,6.51,5.29,13.58,10.88,17.56,17.95,2.87,5.08,3.38,14.07.69,19s-10.45,9-16.39,9.64C317.31,351.54,297.9,330.54,295.94,317.68Z"/><path class="cls-1" d="M294.2,942.41a18.58,18.58,0,0,1-.31-37.16,18.59,18.59,0,1,1,.31,37.16Z"/></svg>