<svg id="Capa_1" data-name="Capa 1" xmlns="http://www.w3.org/2000/svg" viewBox="0 0 869.17 1024"><path d="M254,1052c-22.23-13.45-25.27-21-20.75-47.71,5.6-33.15,10.79-66.37,16-99.59.87-5.55.94-11.23,1.51-18.55-7.81,0-14.95-.1-22.1,0-11.59.19-20.26-4.82-27.34-13.87A19.72,19.72,0,0,0,191.29,866c-8.67-2.22-17.81-2.72-26.42-5.12a81,81,0,0,1-58.17-91.6q5.79-35.47,11.76-70.93a58.13,58.13,0,0,1,1.3-5.85c2.31-8.41,9.37-13.39,16.94-12,8.24,1.52,13.53,8.71,12.12,17.8-3.65,23.69-7.48,47.35-11.63,71-6.09,34.59,12,60,46.42,64.9,4.23.59,8.45,1.25,13.61,2,1.59-21.23,3.15-41.73,4.66-62.23,1.87-25.25,3-50.58,5.7-75.74,3.84-35.74,23.94-58.91,57.82-70.39,1.85-.63,3.65-1.4,6-2.33-8.29-25.61-16.66-50.77-24.46-76.12-1.47-4.78-2.41-11.08-.45-15.19,1.89-3.95,7.69-8,12-8.28s9.48,3.36,13.38,6.41c2.3,1.81,2.88,5.81,5.14,10.85V246.76c-35.33,8.48-66.78,23.94-85,56.88-19.56,35.36-33.27,73.25-38.37,113.75-3,23.86-1.42,47.8,6.94,70,14.24,37.83,13.41,75.49,4.64,113.9-1.78,7.77-2.51,15.78-4,23.62-2.13,10.92-8.62,16.34-17.52,15.05s-13.61-8.39-12-19.52c2.71-18.44,7.15-36.73,8.49-55.25a198.87,198.87,0,0,0-2.39-46.28c-3.36-20.27-10.42-39.95-13.55-60.25-6.32-41.07,4.05-80,18.5-118.06,3.9-10.26,7.82-20.52,12.09-30.63q25.68-60.76,87.6-83.76,8.9-3.3,17.91-6.25c9.72-3.18,19.2-5.74,22.7-17.86,1.33-4.58,7.32-8.62,12.1-11.22,14.61-7.95,29.28-16.08,44.72-22.07,6.56-2.54,16.23-2.27,22.52.79,14.94,7.25,31.53-.08,33.8-17.12,3.49-26.07,6.63-52.19,9.91-78.3.7-5.61,1.44-11.23,2.08-16.85,1.68-14.87,11-23.49,23.8-29.34h184c17.25,6,24.62,18.59,26,36.32,1.49,18.57,4.3,37,6.58,55.55,1.39,11.23,3,22.44,4.29,33.69,1.18,10,8.24,14.1,16.32,18.31,7.18,3.74,9.71-2.64,14.45-4,6.94-2,15.08-3.61,21.78-1.86,12.46,3.27,24.22,9.18,36.34,13.81,11.88,4.54,18.81,12.94,21.88,25.27a13.25,13.25,0,0,0,6.83,7.94c11.7,4.77,23.76,8.61,35.66,12.89,41.08,14.78,71.28,41.89,87.47,82.33,12.45,31.11,24.57,62.83,32,95.38,17,74.26,31.84,149,46,223.9,9.51,50.17-3.53,95.8-41.13,130.42-19.74,18.19-32.07,38.15-40.76,62.71-9.69,27.36-30.73,43.92-59.29,49.5-10.48,2.05-21.48,1.49-33.12,2.16.53,7.57.55,15.57,1.72,23.39q8.37,55.8,17.29,111.5c3.94,24.86-.37,33.71-22.39,44.81h-372c-2.4-2.64-5.41-5-7.1-8-6.28-11.26,2.18-22,17.32-22q172-.06,343.93,0h12c-.39-3.78-.56-6.09-.88-8.37-6.67-48.1-13.65-96.17-19.83-144.34-1.24-9.71-6.91-9.29-13.26-10-8.22,21.43-16.09,26.84-38.44,26.84H282.48L261.16,1022h11c26.66,0,53.32.15,80-.08,8.64-.08,16.41,1.23,19.45,10.38s-2.07,15.18-9.51,19.7ZM646.39,309.08c-12.39,2.47-23,5.65-33.77,6.5-19.88,1.58-34.16,9.56-40.09,29.54a12.48,12.48,0,0,1-1.86,3.51c-4.84,6.79-11.12,9.43-19.07,5.94-7.45-3.26-10.61-11.18-7.37-19.27,2.48-6.16,5.74-12,8.73-17.95,7.7-15.32,19.87-24.45,36.87-27.6,19-3.53,37.9-7.38,56.69-11.79,3.12-.73,7-4.63,7.82-7.75,4.41-17.76,7.22-35.93,12.13-53.53,2.9-10.39.09-14.76-9.61-18.15-20.52-7.16-31.58-22.32-34-43.9-1.46-12.9-3.13-25.78-4.74-38.67-2.4-19.09-4.83-38.19-7.26-57.43H438.51c-4.17,33.06-8.26,65.69-12.42,98.32-2.32,18.24-11.58,31.6-28.31,39.52-4.81,2.28-9.61,4.73-14.67,6.28-7.07,2.17-9.32,6-9.3,13.69q.46,157.47.21,314.93v10c9.33,1.07,15.43,5,16.16,14.18.86,11.07-7,14.72-15.72,17.09v51.12c10-1.58,19.91-1.74,28.78-4.85,20-7,39.77-14.8,59-23.61,12.27-5.62,20.26-6,25.36,2.29s2.28,15.39-8.7,22.94c-1,.67-1.88,1.46-4.18,3.26H573.1c-13.47-12.28-16-17.89-11.72-25.58,4.13-7.49,10.89-9,24.13-5C605.66,499.11,625.81,405.12,646.39,309.08ZM915.8,730.37c22.69-25.13,33.37-62.14,27.1-94.49-11.07-57.18-23.08-114.18-34-171.38-9.24-48.54-22-95.94-41.1-141.6-10.48-25.1-26.24-46.09-50.47-58.61-18.45-9.54-38.46-16.05-58.25-24.1-1.3,3.73-2.28,5.83-2.76,8q-30.65,143-61,286.06c-.61,2.9,1.81,6.52,3,9.72,2,5.22,6.73,10.89,5.77,15.41s-7.38,8.05-11.5,11.91c-2.11,2-5.85,3.39-6.41,5.65-3.72,15.15-6.79,30.47-10.06,45.72,21.07,4.67,42.62-5.15,53.59-24.42,4.27-7.51,7.82-15.43,11.79-23.12,5.49-10.63,13.14-14.16,21.58-10.1,8.21,4,10.15,12.68,5.37,23.13-11,24.11-23.11,47.33-49,58.5,5.54,8.57,10.27,16.14,15.32,23.5,1.13,1.66,3.33,3.64,5.08,3.67,14.91.29,29.83.17,45.11.17,0-20.83,1.15-40.79-.25-60.56-2.44-34.54-6.51-69-9.75-103.45-1.07-11.38,7-19.79,17.15-17.82C800,493.73,804,499,804.74,506.92c3.08,31.16,7.15,62.25,9.07,93.47,1.48,24.13.29,48.42.29,70.54,23.46,3.36,44.8,3.7,64.24,9.94C899.93,687.81,911,706.92,915.8,730.37ZM657.48,855.65c-2.89-39.75-5.44-78.86-8.73-117.92-1-12.32-8.27-17.19-22.59-17.2q-150.87-.07-301.75,0c-16.69,0-22.81,5.83-24,22.49q-2.06,27.9-4,55.79c-1.29,18.8-2.49,37.61-3.75,56.85Zm65.66.17a22.19,22.19,0,0,0,.56-3.88c-3.46-48.85-6.48-97.74-10.63-146.53-2.85-33.57-23.21-51.14-57-51.15q-181,0-362,0c-34.54,0-54.87,18.58-57.52,53-3,38.53-5.57,77.09-8.27,115.64-.76,10.81-1.34,21.63-2,32.71h36.19c2.62-37.5,5.42-74.37,7.73-111.27,2.27-36.29,20.45-53.8,56.71-53.81h219c27.66,0,55.33-.23,83,.07s46.7,17.33,49.83,44.63c1.71,14.88,2.33,29.89,3.43,44.84,1.84,25.15,3.67,50.3,5.53,75.78Zm20-151.75c2.94,40.22,5.65,78.68,8.83,117.1.21,2.52,3.63,6.05,6.26,6.88q21.38,6.71,43.13,12.18c26.1,6.6,51-5.75,60.92-30.59q11.6-29.14,21.56-58.93c8.09-24.12-8.07-46.36-33.62-46.57-31.61-.27-63.22-.07-94.82-.07ZM701.32,196c-30.7,143.27-61.12,285.2-91.61,427.49h35.58l88.8-414.42ZM343.62,623.84V200.11c-9.39,4.66-17.72,9.41-26.53,13-7.27,2.94-9.46,7.16-9.45,15q.42,192.34.2,384.71v11Z" transform="translate(-105.6 -28)"/><path d="M508.55,342.41c-4.38,4.57-7.84,11.21-12.59,12.31s-12.18-1.8-16.31-5.38-6.16-10.09-8.49-15.57c-3.71-8.75-10-13.5-19.34-15.21-17.95-3.29-35.83-7-53.73-10.6-3.58-.71-7.3-1.12-10.67-2.41-8-3-11.36-9.16-9.53-17.42s8.11-12.79,16.2-11.31c24.47,4.49,48.89,9.42,73.12,15,13,3,22.07,11.94,28.18,23.63C499.66,323.66,503.51,332,508.55,342.41Z" transform="translate(-105.6 -28)"/><path d="M561.6,223.64c-13.35,0-20.43-9.07-18.09-18.56q8.09-32.84,16.39-65.6c2.17-8.58,8.73-13.09,17.05-11.56,8.58,1.57,13.67,7.75,12,15.64-4.71,23-10.25,45.94-16.76,68.52C570.72,217.34,564.05,221.11,561.6,223.64Z" transform="translate(-105.6 -28)"/><path d="M476.92,127.73c6.51.36,11,5,12.91,12.6,5.3,21.2,10.67,42.39,15.83,63.63,1.95,8-.3,14.56-8.24,18.22-7.43,3.43-16.25,1.1-19.1-7.3-6.27-18.48-11.1-37.46-16.16-56.33a65.23,65.23,0,0,1-2-15.82C460.08,133.76,466.64,127.54,476.92,127.73Z" transform="translate(-105.6 -28)"/></svg>