<svg id="Capa_1" data-name="Capa 1" xmlns="http://www.w3.org/2000/svg" viewBox="0 0 1025.66 898.29"><path d="M26.22,533c5.59-16.23,17.45-24.64,33.58-29.52,32.2-9.73,64-20.7,96.06-31,28.45-9.11,48.46-26.85,59.08-55.2a333.83,333.83,0,0,1,54.8-94.85c19.1-23.3,24.94-49.52,18.22-78.76a153.81,153.81,0,0,1-3.69-19.63c-.76-8,3.19-13.73,11.13-15.44,8.19-1.76,14.9,1.3,17.4,9.61,12.84,42.77,12.06,83.86-17.61,120.27-25.79,31.64-44.79,66.89-59,107.1,7.36-2.25,13.73-4.15,20.08-6.15,7.31-2.3,14.57-4.75,21.89-7,11-3.41,19.51,0,22.16,8.68S298.24,457.29,287,461q-54.58,18-109.21,35.81c-37,12.12-74.13,24.07-111.08,36.47-3.86,1.29-6.9,5.07-10.32,7.7,3.4,2.65,6.39,6.5,10.24,7.77q110.55,36.49,221.27,72.47c3.16,1,6.35,2,9.45,3.24,9.6,3.71,13.64,11,10.94,19.42-2.57,8.06-10.71,11.9-20.51,8.92-13.39-4.07-26.59-8.71-39.9-13-3.39-1.11-6.86-2-11.72-3.36,11.36,31.76,24.95,60.7,43.82,87,4.86,6.77,10,13.34,15.16,19.9,22.84,29.1,30.28,61.81,22.83,97.91-7.21,34.93-14.8,69.77-21.84,104.73-.81,4,.77,8.54,1.24,12.83,4-1.51,8.83-2,11.83-4.68,25.58-22.46,51.12-45,76.09-68.1,30.84-28.58,66.39-38.9,107.85-31.71,37.82,6.55,75.64,3.65,115.06-3.33-13-11.77-25.42-22.24-36.84-33.69-3.79-3.8-7.29-10.25-7-15.28.67-12.61,15.24-16.87,25.69-7.73,19.85,17.35,39.34,35.1,59,52.7q26.84,24.08,53.62,48.18c9.4,8.49,10.72,17,3.92,24.18-6.25,6.64-15,6.05-23.84-1.71-5.28-4.61-10.38-9.43-15.71-14-20.12-17.19-43.14-24.61-69.56-20.45-40.56,6.4-81,5.39-121.59-.48-24.44-3.54-46.21,4.59-64.61,20.79-28.55,25.14-56.76,50.66-85.09,76.06-10.17,9.13-21.81,12.78-35.13,9-19.7-5.59-29.81-23.49-25.43-44.59,7.85-37.85,16-75.64,23.55-113.55,4.69-23.47,0-45.59-14.79-64.28A421.76,421.76,0,0,1,211.65,657.4c-8.38-21.48-24.67-36.58-46.49-44.19Q112.8,595,59.8,578.55c-16.09-5-28-13.32-33.58-29.54Z" transform="translate(-26.22 -91.74)"/><path d="M772.87,755.66a372.81,372.81,0,0,0,65-108.3c12.6-32.24,36.92-53.41,69.72-64.4,34.11-11.43,68.41-22.32,102.49-33.83,4.22-1.42,7.65-5.21,11.44-7.9-3.64-2.8-6.88-6.81-11-8.2q-48.75-16.5-97.8-32.11c-37.72-12-64-35.83-77.86-73.2s-35.43-70-62-101.45c-3.28,15.13-6.36,29.32-9.43,43.51-.43,2-.72,3.94-1.3,5.84-2.61,8.66-8.5,12.55-17.42,11.25-7.92-1.16-13.1-8-11.55-17,3-17.4,6.82-34.66,10.46-51.94,12.85-61,25.84-122,38.48-183,.76-3.66-1.08-7.86-1.72-11.81-3.74,1.36-8.33,1.76-11.09,4.22Q683,204.3,597,281.65c-2,1.78-3.9,3.66-6,5.31-7.47,5.86-15.92,5.69-21.59-.35-6.19-6.59-5.74-15,1.81-22.05C583,253.68,595,243.13,609,230.48c-19.21-2.12-36.11-5.48-53-5.5a608.39,608.39,0,0,0-71.79,4c-36.92,4.33-68.5-5.94-95.89-30.44-26.36-23.59-52.58-47.35-79.15-70.7-3-2.62-7.84-3.08-11.83-4.55-.53,4-1.65,8-1.42,11.95.26,4.61,2,9.11,2.56,13.73.95,8.49-4.15,15.78-12.05,17-8.43,1.25-14.56-2.59-16.92-10.65a128.94,128.94,0,0,1-4.74-23.48c-1.57-15.89,5.1-28.06,19.19-35.46s28-5.89,40.09,4.45c16.73,14.31,33,29.24,49.36,43.93,11.2,10,22.45,20,33.5,30.13,21.42,19.69,46.11,28.55,75.29,23.85a361.83,361.83,0,0,1,114.62.08c28.41,4.48,52.54-4.24,73.57-23.2,27.27-24.58,54.47-49.25,82-73.48,21.29-18.71,53.08-9.76,59.79,16.83,1.56,6.19,1.12,13.34-.14,19.7-7.53,37.92-15.85,75.69-23.34,113.62-4.49,22.72-.06,44.45,14.2,62.51a445.64,445.64,0,0,1,64.25,111.3c9.19,23,27.72,37.09,51,44.82,36,12,72.27,23.4,108.2,35.7,23,7.87,32.1,32.4,20.51,52.68-5.5,9.61-14.32,14.46-24.47,17.74-33,10.65-65.77,21.85-98.86,32.08-30.2,9.34-50.58,28.19-61.55,57.94a311.62,311.62,0,0,1-52.28,90.58c-20.41,24.77-26.43,52-19.11,83.22,8.07,34.39,14.77,69.1,21.95,103.69,3.56,17.13-2.91,32.32-16.92,40.43-14.22,8.24-30,6.39-43.47-5.22-4.81-4.14-9.72-8.2-14.1-12.76-6.18-6.42-6.24-14.61-.72-20.69S751,939.62,758,945c4.23,3.24,7.77,7.45,12.18,10.35,2.94,1.93,6.88,2.33,10.37,3.41.68-3.65,2.52-7.52,1.85-10.9-6.36-31.69-13.14-63.31-19.81-94.94q-15.08-71.43-30.13-142.85c-2.25-10.69,1.78-18.5,10.43-20.6,9-2.19,16.25,3.23,18.78,14.48C765.43,720.77,769,737.63,772.87,755.66Z" transform="translate(-26.22 -91.74)"/><path d="M483.63,749.44c-37.06,0-67.48-28.56-70.18-65.88-.78-10.8,4.29-18,13.28-18.94,9.33-.93,15.38,4.59,16.51,15.66,1.81,17.91,10.29,31,27.57,36.92,15.57,5.37,29.8,1.9,41.38-9.79s14.59-26.08,9.21-41.55-17.07-24.09-33.27-26.66c-4.21-.67-10.09-.43-12.14-3-3.5-4.44-6.63-11-6.18-16.29.61-7.14,7-10.58,14.62-10.87,36.71-1.41,69.73,32.1,69.43,70.64A70,70,0,0,1,483.63,749.44Z" transform="translate(-26.22 -91.74)"/><path d="M732.15,639c-36.52-.2-67.44-29.33-69.5-65.48-.67-11.78,4.18-19,13.37-19.82,9-.83,15.24,5.4,16.44,17.31,1.79,17.77,10.88,30,27.6,35.72,15.64,5.37,29.84,1.53,41.26-10.26s14.7-26.11,8.92-41.58-17.19-23.68-33.53-26.43c-6-1-13.37-3.78-16.77-8.27-7.09-9.38,1.06-21.3,13.73-21.62,30.35-.75,59.44,22.21,67.12,53C811.86,595.89,777.81,639.27,732.15,639Z" transform="translate(-26.22 -91.74)"/><path d="M471,471.8c0,30.11-23,54.36-53.6,56.55-27.9,2-55-20.24-58.59-48-1.79-14,2.47-22,12.42-23.33,9.5-1.26,15.26,4.84,17.42,18.46C390.91,490,403.86,500,417.81,498c14.5-2.09,24.47-14.7,22.95-29-1.35-12.78-10.67-20.58-25.61-24-5.33-1.22-11.86-5.35-14.17-10-5-10.05,4-20.09,16.25-19.63C446.82,416.47,470.94,441.82,471,471.8Z" transform="translate(-26.22 -91.74)"/><path d="M580.27,360.29a56.47,56.47,0,0,1,56.56,51.29c1,10.83-3.75,18.27-12.51,19.52-9.64,1.38-15.77-4.17-17.4-15.77-2.28-16.18-13.09-25.68-28.26-24.86A25.74,25.74,0,0,0,554.34,415c-.78,14.9,9,25.67,25.25,27.85,10.84,1.46,16.54,7.61,15.58,16.82-.89,8.6-7.56,13.49-18,13.17C548,472,523.79,446.05,524.12,416A56,56,0,0,1,580.27,360.29Z" transform="translate(-26.22 -91.74)"/><path d="M596.66,526.9a15.29,15.29,0,0,1-16.4,14,15,15,0,0,1,2.86-29.79C591,511.88,597.22,519.19,596.66,526.9Z" transform="translate(-26.22 -91.74)"/><path d="M649.35,694a14.87,14.87,0,0,1-15,15.2,14.95,14.95,0,1,1,.48-29.89A14.84,14.84,0,0,1,649.35,694Z" transform="translate(-26.22 -91.74)"/><path d="M384.27,764.46a15.13,15.13,0,0,1-13.39-16.78,15,15,0,0,1,29.77,2.87A15.18,15.18,0,0,1,384.27,764.46Z" transform="translate(-26.22 -91.74)"/><path d="M388.05,596.73a15,15,0,0,1-15.89,14.4,14.61,14.61,0,0,1-13.8-15.28A14.87,14.87,0,0,1,373,581.3,15.33,15.33,0,0,1,388.05,596.73Z" transform="translate(-26.22 -91.74)"/><path d="M463.5,337.83a14.79,14.79,0,0,1-29.57.49c-.14-8.28,6.9-15.42,15.07-15.26A15.06,15.06,0,0,1,463.5,337.83Z" transform="translate(-26.22 -91.74)"/></svg>