<svg id="Capa_1" data-name="Capa 1" xmlns="http://www.w3.org/2000/svg" viewBox="0 0 1049.21 925.79"><path d="M1065.33,385.37c-2.33,12.67-4.17,25.45-7.09,38-11.63,49.9-36.13,93.1-69.41,131.64-4,4.62-8.09,9.15-12.78,14.44,33.89,31.38,49.42,69,34.3,114.19-15,44.85-48.43,67.48-95.86,71.72-1.42,27.44-11,51.6-30.73,71.18s-43.75,29.61-72.35,30.4c-5,47.12-28,81.31-74.06,95.4-46.44,14.22-84.18-3-115.69-39.4-21.39,21.68-41.77,43.23-63.13,63.78-34.76,33.43-90.45,36.89-128.85,8.12C405.89,967,392,943,389.11,913.13c-.23-2.33-.69-4.65-1.16-7.8-26.42-1.79-49.86-10.66-68.89-29.52C300.32,857.24,291,834.4,288.78,808c-36.63-2.67-65.11-18.58-82.49-51-17.19-32-15.07-64.23,3.86-98.46-2.38-1.55-5.89-3.18-8.56-5.69-32.82-30.86-66-61.36-98.15-92.88C25.23,483.41-2,390.81,28.12,285.92,58,182.13,129.58,117.36,235.38,95.66c89.87-18.43,170.26,5.77,238.46,67.79C491.72,179.71,508.7,197,527.7,215.3c5.8-6.28,11.15-12.33,16.77-18.13,27.83-28.69,56.27-56.6,90.94-77.33,126.9-75.86,280.87-45.16,371.28,74.3,31.53,41.66,51.23,88.19,57,140.36a34.89,34.89,0,0,0,1.68,5.81ZM480,475.18c-2.35,1.33-3.05,1.55-3.51,2Q371.1,582.49,266,688.06c-5.07,5.11-8.24,13.5-9.35,20.82-2.15,14.17,6,26.9,18.83,33.3,13.46,6.7,28.23,4.7,39.63-6.39,19.08-18.57,37.73-37.57,56.58-56.37,16.16-16.12,34.23-17.85,47.7-4.6s11.92,31.86-3.92,47.74c-17.12,17.16-34.35,34.2-51.38,51.44-17.54,17.74-18.08,42.1-1.53,58.29,16.09,15.74,40,14.69,57.55-2.67,17.69-17.55,35-35.55,53.08-52.63a43,43,0,0,1,19.2-10.44c13.19-2.89,25.63,4.17,31.61,15.68a30.89,30.89,0,0,1-5.65,35.94c-18.1,18.57-36.66,36.7-54.91,55.14-17.56,17.75-18.14,42.05-1.59,58.3,15.89,15.61,40.2,14.58,57.56-2.63,18.43-18.26,36.51-36.87,55.17-54.88,5.27-5.1,5.83-9,2.88-15.78a101.61,101.61,0,0,1,33.44-122.41c7.57-5.5,16-9.83,24-14.69-29.4-47.15-18.34-91.79.25-116.81,31.45-42.36,73.43-53.67,123.07-38.15,29-79.95,122.38-94.18,174.36-41.19,1.94-1.75,4-3.42,5.87-5.32,40-41.5,61.94-90.92,63.79-148.71C1007.53,205.92,840,93.45,688.92,160.12c-48.54,21.43-80.52,61.94-119.18,98.77,3.47,2.47,6.55,4.13,9,6.48q44.92,43.39,89.65,87c44.55,43.55,46,114,3.27,157.19-43.67,44.24-113.26,44.21-157.84-.13C502.45,498.14,491.32,486.65,480,475.18ZM251.36,616c3.67-4,6.09-6.91,8.73-9.56q86.09-86.15,172.27-172.2c27.14-27,65.86-26.74,93.16.14,10.21,10.05,20.24,20.28,30.43,30.36,21.78,21.55,51.85,22.22,72,1.66,19.18-19.58,18.1-49.72-3.07-70.37C561.15,333.89,497.7,271.42,433.27,210c-48.27-46-106.64-65.52-172.74-56.16-81.9,11.61-139.71,57.06-168.63,134.25C63.12,364.88,76,437.74,130.7,499,167.6,540.32,210.24,576.53,251.36,616ZM805,795.46c23-.73,35.73-9,43.06-24.31,7.62-15.95,5.76-31.92-6.53-44.59q-46.62-48-94.65-94.68c-16.44-16-40.81-14.4-56.9,2-15.73,16-16.22,40.8-.26,57C720.26,722,750.9,753,782.4,783.16,789.5,790,800.22,793,805,795.46Zm57.88-240.62c-23.24.82-35.93,9.08-43.07,24.59-7.39,16.05-5.14,31.72,7.09,44.55q28.21,29.6,57.82,57.87c16.9,16.16,41.9,15.2,57.79-1.19s16.37-40.21.2-57c-18.67-19.4-37.42-38.8-57.31-56.91C878.06,560.11,867.41,557.17,862.83,554.84ZM702.59,896c22.57-1.14,35.38-9.31,42.49-24.8s5.14-31-6.59-43.74c-12.69-13.78-26-27-39.72-39.79-16.31-15.19-40.17-14-56.2,1.87-15.24,15.11-16.75,39.69-2.28,55.56C653.13,859.17,666.5,873,681,885.32,688,891.35,698.06,893.84,702.59,896Z" transform="translate(-16.12 -78.5)"/></svg>