<svg id="Capa_1" data-name="Capa 1" xmlns="http://www.w3.org/2000/svg" viewBox="0 0 1010.91 979.33"><path d="M387.07,327c-40.18,29.32-82,24.65-124.44,7.85-8.78-3.48-12.21-12.71-9.16-21,3.12-8.48,11-12.67,20.36-10.34,11.87,3,23.49,7.28,35.5,9.25,24.92,4.1,47.3-1,65-20.84,7.53-8.45,17.11-8,26-.32,6.58,5.74,12.81,12.36,20.37,16.38,17.58,9.35,35.51,8,51.61-3.72,17.6-12.78,34.83-26.13,51.52-40.08,20.9-17.48,24.33-48,7.1-69.13-17.53-21.49-36.06-42.22-55.09-62.39a47.37,47.37,0,0,0-58.14-8.89C356,158.7,294.7,194.19,233.43,229.72c-4,2.34-7.23,6.6-10.08,10.5-43.16,59-72.14,125.06-95,194C102.69,511.53,85.26,590.8,78,671.83c-5.67,63.65-7.82,127.64-10.6,191.52-1.24,28.61,10.18,44.23,36.51,55.16,109.93,45.62,224.6,69.46,343.2,75.84,107.22,5.76,212.9-4.63,317.35-29,1.7-.4,3.42-.79,5.15-1,11.25-1.61,19.16,3,21.21,12.23,2.1,9.51-3.62,18.32-14.67,20.77-24.28,5.4-48.57,10.92-73.06,15.16-76.24,13.22-153.09,19.38-230.46,16.9-132.19-4.25-260.26-28.83-382.79-79.79-38.24-15.9-56.28-43.71-56.48-85.14C32.82,744.13,43.32,625,71.6,507.84,93.12,418.64,123.81,333,172.3,254.5c4.8-7.76,10.1-15.21,15.08-22.86A117.41,117.41,0,0,1,230,192.18c55.46-30.84,110.16-63.06,165.23-94.62,39.11-22.41,80.08-15.84,110.38,17.72q24,26.6,47.48,53.67c33.21,38.48,28.86,91.11-10.25,123.53-13,10.75-26.48,20.85-39.78,31.19C463,354.78,429.45,355.86,387.07,327Z" transform="translate(-33.37 -50.57)"/><path d="M349.56,621.8c109.58-45.44,156.56-43,265.09,13.3,2.77-4.27,5.4-8.75,8.43-13,6.07-8.39,15-10.5,23-5.66s10.94,14.5,5.7,22.9a226.77,226.77,0,0,0-29.33,72.85,16.34,16.34,0,0,1-19.87,12.87c-9.11-2.19-14.88-10-12.85-19.9,2.6-12.63,6.52-25,10.08-38.21-29.78-21-62.79-35-99-40.1-95.61-13.41-174,30.06-214.24,118-7,15.25-20.1,19.24-29.43,8.84-5.62-6.26-5.37-13.19-2.14-20.6,13.35-30.65,31.43-58,55.94-80.81,5.14-4.78,6.56-9.34,6.37-16.36q-3.25-118-5.49-236c-.22-11.36,7.68-18.46,17.69-17.92,9.83.53,15.7,7.87,15.83,19.76.69,61.5,1.3,123,2.16,184.51C347.58,597.79,348.78,609.35,349.56,621.8Z" transform="translate(-33.37 -50.57)"/><path d="M757.72,354.48c74.06-.05,134.76,60.53,134.89,134.63.13,74.73-60.61,135.62-135.11,135.48-73.93-.14-134.4-61-134.37-135.18S683.76,354.53,757.72,354.48ZM758,590.8c55.55-.06,101-45.68,100.89-101.4S813.36,388.22,757.74,388.27s-101,45.66-100.9,101.38S702.45,590.86,758,590.8Z" transform="translate(-33.37 -50.57)"/><path d="M507.85,930.68c-48.17-3.83-92.84-7.37-137.5-10.95a45.86,45.86,0,0,1-5.18-.86c-12.36-2.3-18.9-9.74-17.21-19.54,1.76-10.17,9.84-15.25,22.22-13.65,91.9,11.9,183.75,12,275.55-1.19,2.08-.3,4.18-.43,6.28-.59,12.48-1,20.52,4.51,21.52,14.61,1,9.86-5.9,17.76-18.21,18.92C605.15,922.18,554.93,926.49,507.85,930.68Z" transform="translate(-33.37 -50.57)"/><path d="M983.77,246.09c8.64-25.93,16.72-50.21,24.83-74.49a72.53,72.53,0,0,1,3.68-9.84c4.24-8.29,11.09-11.62,20.09-9,8.43,2.47,14,11.44,11.2,20-11.21,34.73-22.65,69.4-34.77,103.82-3.69,10.52-13.49,13-24.58,7.66-15.71-7.57-31.23-15.55-48.06-24-7,20.9-13.66,40.72-20.3,60.54-2.45,7.32-4.59,14.76-7.41,21.94-3.69,9.4-12.53,13.81-21,11.06-8.95-2.9-13.88-12.21-10.65-22.14q16.1-49.59,32.9-98.93c4.34-12.72,13.68-16.37,25.89-10.53C951.3,229.76,966.83,237.69,983.77,246.09Z" transform="translate(-33.37 -50.57)"/><path d="M723.75,155.43c-6.28-27-12.55-53.62-18.61-80.26-2.93-12.88,1.54-21.69,11.77-24.12,9.59-2.28,17.62,3.64,20.57,15.94q11.89,49.62,23.34,99.36c2.7,11.77-3.15,20.14-15.11,21.6-13.91,1.7-27.9,2.72-41.85,4.08-4.06.39-8.11,1-13,1.55,5.95,25.67,11.64,50.18,17.32,74.7.72,3.07,1.53,6.13,2.1,9.23,1.91,10.43-3.08,18.6-12.66,20.88-8.71,2.07-17.15-3-19.67-13-5.18-20.4-9.84-40.93-14.66-61.42-3-13-6.07-26-8.95-39-3.17-14.31,2.27-22.34,16.86-24,15.31-1.77,30.7-2.86,46-4.31C719.26,156.5,721.26,155.92,723.75,155.43Z" transform="translate(-33.37 -50.57)"/><path d="M926.15,552c2.62.88,5.42,1.41,7.83,2.69a294.06,294.06,0,0,1,70.58,52.71c7.73,7.77,7.7,17.48.85,24.43-6.56,6.66-15.5,6.59-23.72.35-21.44-16.3-42.92-32.55-64.6-48.52-7.21-5.31-10.59-12.43-7-20,2.59-5.44,9-9,13.73-13.46Z" transform="translate(-33.37 -50.57)"/><path d="M808.36,489.45c0,27.92-23.08,50.92-51,50.7-27.4-.21-50-23-50-50.55a50.82,50.82,0,0,1,50.93-50.68C785.74,439.13,808.33,461.93,808.36,489.45Zm-51-16.72A16.81,16.81,0,1,0,774.62,489,17,17,0,0,0,757.35,472.73Z" transform="translate(-33.37 -50.57)"/></svg>