<svg id="Capa_1" data-name="Capa 1" xmlns="http://www.w3.org/2000/svg" viewBox="0 0 1011.52 1011.58"><path d="M33.33,424.54c1.27-4.34,2.48-8.69,3.81-13,3.41-11.07,12.69-16.82,23.41-14.58,10.29,2.15,17,11.82,14.57,23.25-5.28,24.46-1,46.32,15.31,65.57a44.46,44.46,0,0,1,2.93,4.49c21-12.11,40.94-23.55,60.83-35q55.51-32.06,111-64.15,43.6-25.23,83.73,5.17c13.36,10.14,27,20,40.14,30.36,25,19.71,34.06,45.16,26.06,76.16-7.11,27.6-14.59,55.11-22.38,84.39,4.59-2.48,7.67-4.06,10.67-5.79,22.23-12.79,44.25-26,66.7-38.33,26.08-14.37,51.86-12.85,76.18,4.26,15.6,11,30.89,22.45,45.7,34.47,23.73,19.27,32.18,44.25,24.68,74-7.05,28-14.75,55.79-22.69,85.68,25.41-14.68,49-28.62,73-42a100.4,100.4,0,0,1,24.43-10.09c20.14-4.94,33.36-1.62,60,13.3-1.41-3.93-2.33-6.94-3.56-9.82Q731,653.45,714,614.06C697.65,575.92,700,557,725.73,524c-4.53-.46-8.61-.62-12.59-1.32-26.35-4.57-44.9-19.13-55.48-43.75Q635.3,426.82,613,374.72c-13.37-31.12-8.91-59,15-83.39,1.53-1.57,2.86-3.34,5-5.86-3.89-1.3-6.89-2.24-9.85-3.31-34.76-12.55-60.58-35.22-76.33-68.74-8.1-17.24-15.8-34.72-22.7-52.47-13.41-34.51-11.61-68.57,7.1-100.61,5.92-10.15,15.67-18.07,23.66-27h11.86c17.15,12.1,17.83,20.84,4.48,38-17.38,22.3-20.64,47.36-10.84,73.57a526,526,0,0,0,23,53.39c16.36,32.33,43.47,49.27,79.59,51.43,3.18.19,7.41-1.08,9.62-3.24,23.24-22.79,46.16-45.91,71.09-70.85-8.5,0-14.85.14-21.19,0-12.61-.34-21.38-8.61-21.29-19.86s8.85-19.58,21.56-19.52c16.09.08,32.39-.63,48.23,1.6,23.42,3.28,40.36,17.21,50.31,38.55,8.6,18.46,16.81,37.18,23.77,56.3,10.16,27.91,4.45,53.24-16.23,74.63-17.62,18.22-35.79,35.91-53.69,53.85-2.22,2.23-4.31,4.6-7.61,8.13,4.74.28,7.85.61,11,.62,24.69,0,49.38-.17,74.06.08,32.59.32,55.73,15.27,68.63,45.46,6.71,15.72,13.58,31.37,20,47.22,11.93,29.59,6.77,56.19-15.37,79.08-17.62,18.22-35.79,35.9-53.68,53.86-2.2,2.2-4.2,4.6-7.76,8.53,26.36,0,50.58-.08,74.79,0,8.87,0,17.94-.45,26.56,1.16,23.93,4.48,41.24,18.23,51.28,40.47,7.43,16.47,14.4,33.16,21.27,49.88,12.44,30.3,7.29,57.44-15.79,80.68Q958.81,840.45,894.7,904.14c-2.55,2.55-5.55,4.66-9.11,7.61,15.1,19.93,33.63,31.85,56.72,36.21,9,1.69,18.3,1.64,27.48,2,13,.54,21.46,8,21.61,19.49s-8.48,19.54-21.1,20c-59.72,2.45-108.49-28-132.47-82.75-5.27-12-11-24-15.2-36.38s-6.87-25.23-10.39-38.56c-14.75,55-29.42,109.77-44.35,165.46,19.12,8.91,38.7,10.58,58.49,5,10.31-2.89,20.16-7.83,29.73-12.79,13.63-7.06,24.93-5.72,31.08,4.73,6.28,10.69,2.3,21.5-10.79,29.29-52.09,31-106.31,28.2-155-8-7.38-5.5-14.72-11.08-22.17-16.5-33.86-24.69-53.09-57.65-56.52-99.6-.21-2.59-.59-5.16-.87-7.58-10.64,3.78-20.74,8.44-31.36,10.89-19,4.37-36.83-.08-52.37-11.46-33.45-24.49-66.89-49-99.56-74.53-22.11-17.25-30-40.84-25-68.56.34-1.89.54-3.81.87-6.08-8.82,2.89-16.88,6.57-25.33,8.09-20.41,3.69-39.11-1.06-55.82-13.61-30.77-23.14-61.67-46.1-92.47-69.2-26.27-19.69-35.21-45.65-27.74-77.46.58-2.49,1.17-5,1.68-7.14-15,.79-29.62,2.54-44.16,2.13-25.7-.73-48.75-10-69.44-25.11C106.86,549.34,92.69,538.63,78.46,528c-23.7-17.75-38.46-41-43.53-70.34a14.82,14.82,0,0,0-1.6-3.47Zm637.16-15.86c44.75-44.43,88.5-87.61,131.88-131.16,9.28-9.32,9.93-21.2,5.1-33.1-6.54-16.12-13.48-32.09-20.32-48.09a32.8,32.8,0,0,0-2.82-4.43c-44.19,43.93-87.88,87.18-131.3,130.69-8.39,8.41-10.25,19.4-6,30.26C654.18,371.45,662.41,389.65,670.49,408.68ZM328.59,668.77c1-1.45,1.83-2.17,2.07-3.06,15.7-58.71,31.49-117.39,46.92-176.17,3.37-12.83-1.89-23.27-12-31.2C355,450,344.11,442,333.3,433.94c-4.56-3.4-9.28-6.58-14.59-10.32-16.24,60.52-32.21,119.49-47.77,178.57-2.95,11.23-.28,22.16,9,29.61C295.72,644.57,312.25,656.44,328.59,668.77Zm191.61-92c-16.36,61.14-32.35,120.35-47.9,179.68-2.54,9.71-.18,19.81,7.63,26.29,16.27,13.49,33.43,25.91,51.36,39.63,4.45-16.66,8.39-31.51,12.38-46.35,11.32-42.16,22.53-84.35,34.05-126.46,3.57-13,3.13-25.41-7.62-34.41C554.53,602.16,538,590.34,520.2,576.79ZM882.82,425.55c-1.63.71-2.38.82-2.81,1.25q-64.2,64.14-128.3,128.39c-8.32,8.38-10.85,19.24-6.66,30.16,7.26,18.91,15.68,37.38,23.56,55.92,1-.26,1.46-.23,1.66-.43,43.51-43.43,87.13-86.77,130.39-130.45a24.68,24.68,0,0,0,5.85-26.66C899.13,464.15,890.78,444.93,882.82,425.55ZM733.35,974.09c15.86-59.75,31.53-118.38,46.91-177.09,2.58-9.86.38-19.86-7.3-26.34-16.24-13.71-33.47-26.25-51-39.83-1.34,4.27-2.3,7-3,9.8q-16.17,60.42-32.28,120.86C674,908.78,690,948.08,733.35,974.09Zm134.41-99.88c43.35-43.07,87-85.89,129.72-129.64,5.13-5.26,8.8-16.66,6.81-23.3-6.34-21.11-15.69-41.31-24-62.15a30.34,30.34,0,0,0-3.3,2c-31.89,31.84-63.88,63.58-95.61,95.58C849.11,789.3,844,834.42,867.76,874.21ZM128.07,515.93c8.81,6.28,15.67,12,23.27,16.46,29,17.09,59.11,18.38,89.39,3.71,4.26-2.06,8.42-7.32,9.76-11.94,7.94-27.42,15-55.08,22.4-82.67.73-2.74,1.22-5.55,2.29-10.47ZM839.75,411.27c-2.1-1.12-2.65-1.67-3.2-1.67-35.15-.09-70.3-.24-105.45,0-2.82,0-6.19,2-8.35,4.1-10.42,10-20.59,20.29-30.66,30.66-1.61,1.66-3.34,4.4-3.14,6.45,1.92,18.84,17.74,32.86,36.87,33,11.5.09,23,.18,34.49-.09,3.06-.07,7-.52,9-2.43C792.73,458.33,815.88,435.08,839.75,411.27ZM476.59,586.55c-2.27.35-3.31.25-4,.67-30.14,17.34-60.3,34.66-90.28,52.27-2.44,1.43-4.5,4.67-5.34,7.48-4.09,13.83-7.81,27.78-11.41,41.74-.61,2.35-1,5.61.15,7.41,8.66,13.65,31.32,19.56,45.87,11.85,11-5.83,21.87-12,32.34-18.76A20.23,20.23,0,0,0,451.74,679c4.58-15,8.3-30.35,12.35-45.56C468.19,618.06,472.3,602.66,476.59,586.55Zm202,151.72c-33.83,19.54-65.11,37.54-96.26,55.78-1.92,1.12-3.34,3.94-4,6.26-4.07,14.2-7.9,28.47-11.66,42.76-.45,1.68-.71,4,.12,5.33C575.46,862,598.28,868.45,612.6,861c11.93-6.24,23.47-13.21,35-20.12,2.05-1.23,4.25-3.48,4.85-5.67C661.08,803.9,669.41,772.56,678.59,738.27Zm107.82-55.8c1.31,3.11,3.11,6.95,4.57,10.92,6.09,16.62,17.88,24.32,35.58,23.63,10.17-.39,20.41.5,30.53-.32,4.69-.38,10.19-2.37,13.56-5.52,13.45-12.54,26.17-25.87,39.23-38.82,9-8.92,18.11-17.7,28-27.35-2.76-.84-3.62-1.33-4.47-1.33-34.83,0-69.66-.2-104.48.15-3.35,0-7.33,2.51-9.87,5C808.29,659.44,798,670.48,786.41,682.47Zm26,74.16,8.2,22.84c3.67-8.19,6.8-15.2,10.22-22.84Z" transform="translate(-33.33 -33.33)"/><path d="M632.13,136.15a19.68,19.68,0,0,1-.15,39.36c-10.83,0-20-9.49-19.66-20.25A20.05,20.05,0,0,1,632.13,136.15Z" transform="translate(-33.33 -33.33)"/></svg>