<svg id="Capa_1" data-name="Capa 1" xmlns="http://www.w3.org/2000/svg" viewBox="0 0 941.38 706.3"><path d="M323.27,196.07c69.49-3.32,139-7.14,208.49-9.81,71.12-2.73,128,25.21,170.12,82.62q126.35,172.28,252.4,344.76,26.09,35.63,52.31,71.15c7.84,10.64,7.27,18.82-2.21,28.31Q918.48,799,832.55,884.9c-9.11,9.11-17.27,9.9-27.38,2.32-96.83-72.65-188.71-150.91-266.71-243.93C508.06,607,481.64,567.39,453.81,529c-5.41-7.46-11.17-12.24-20.71-12q-167.28,3.87-334.54,7.64c-12.89.31-21.07-6.7-21.38-19.47q-3.3-136.36-6.51-272.73c-.44-19.28,4.25-24.67,23.14-25.6q114.72-5.62,229.45-10.88ZM851.8,812a27.59,27.59,0,0,0-2.12-2.87q-67-73.39-134.16-146.68c-5.77-6.27-10.81-12.52-7.93-21.43,2.76-8.52,9.5-12.23,18.14-14,9.69-2,19-5.74,28.71-7.81,6.5-1.4,8.07-4.68,7.82-10.76-.44-10.66.14-21.36-.31-32-.39-9.28,1.73-17.06,10.93-20.77,9.42-3.8,16.7-.22,23.35,7.15q54.76,60.65,110,120.89c11.87,13,23.8,26,35.93,39.19l26.79-27.14a39.59,39.59,0,0,0-2.13-3.65Q818.12,489,669.24,286.05c-32.61-44.23-77.7-65.23-132.76-63.46-32.73,1.06-65.43,3.19-98.16,4.67q-156.09,7-312.18,14c-6.07.28-12.12,1.13-17.44,1.64v60c3.68,0,6.21.1,8.72,0C197.21,299.2,277,295.39,356.79,292c6.66-.28,8.31-3.21,10.06-8.77,13.7-43.5,60.17-65.47,101.77-48.44,42,17.19,59.1,65.83,37.18,106.86-2.88,5.39-2.38,8.63.85,13.6,17.16,26.43,18.48,54.13,2.67,81.33-15.15,26-39.16,39-69.09,37.39-31.79-1.69-54.55-18.34-66.92-47.92-2.52-6-5.14-8.17-11.93-7.84-76.1,3.76-152.22,7.11-228.33,10.62-6.83.31-13.64,1-19.64,1.4v57c10.91,0,20.46.17,30,0,95.69-1.94,191.38-3.76,287.06-6.07,24.6-.59,42.18,9.54,54.88,30.17,9.25,15,18.89,29.86,29.28,44.11,66.77,91.69,147.41,170,234.5,242,21.75,18,44.21,35.08,65.25,51.71ZM475.25,374.13c-9.53,2.33-17.94,4.69-26.49,6.39-12.49,2.49-23-3.56-24.71-13.8-2.12-12.43,3.83-19.86,17.84-22.4,12.65-2.3,24-6.95,31.28-18.37a39.85,39.85,0,1,0-73.45-22.73c-.75,19.54-4.58,23.1-24.34,24q-121.81,5.55-243.63,11.33c-7.18.34-14.34,1-20.63,1.5V393.1c4.91,0,8.58.14,12.23,0q81.59-3.68,163.16-7.44c31.23-1.45,62.47-2.71,93.66-4.72,14.87-1,22.82,4.95,24,19.93,1.32,17.14,13.31,31.68,29.58,35.86A40.42,40.42,0,0,0,477.21,420C486.75,405.55,486,388.5,475.25,374.13ZM801.12,622.21l-3-1.24c4.75,31.87-22.83,26.46-38.7,35.56L877.23,785.68c13.13-12.79,25.64-25,38.7-37.69Z" transform="translate(-70.64 -186.08)"/><path d="M620.29,559.05c-17.59,9-36.46,12.06-56.15,7-34.76-8.89-58.89-40.56-57.74-75.42,1.18-35.71,26.14-65.85,61.1-72.7,6.77-1.33,9.55-3.66,11.56-10.37A75.89,75.89,0,1,1,719,464.45c-3.92,7.38-3.69,12.13,2.46,16.81,18.74,14.23,25,32.87,21.93,56-1.55,11.57-.41,23.51-.26,35.29.14,11.1-5,18-15.68,21-15.54,4.4-31,9.12-46.55,13.4-8.87,2.44-16.35.36-22.7-7-11.53-13.36-23.63-26.24-35.51-39.3A14.11,14.11,0,0,0,620.29,559.05Zm-43-105.76c-17.76,2.81-30.9,14.86-33.86,31.19-3.06,16.84,4,33.09,18.24,41.87,14.73,9.09,32.44,7.88,46.34-3.17,13.08-10.39,20.94-9.71,32,2.57,8.86,9.85,18.78,18.92,26.51,29.58,9.05,12.49,18.8,14.93,32.7,8.81,5.76-2.53,7.14-5,7.89-10.86,3-23.49-2.24-43.42-22-58.15-1.44-1.08-2.47-2.72-3.73-4.06-14-14.91-14-20,0-35.07,11.36-12.24,13.52-31.35,5.22-46.2a39.56,39.56,0,0,0-42-19.67c-30.31,6.1-42,38.36-23.25,64.24,8.4,11.59,7.88,21.92-1.44,29s-20.17,4.72-28.36-6.7C586.44,469.52,582.38,461.68,577.33,453.29Z" transform="translate(-70.64 -186.08)"/><path d="M566.54,236.75c7.79,2.95,16,5.05,23.26,9,14.47,8,28.51,16.81,42.49,25.67,29.42,18.64,29.62,50.71.57,69.47-14.22,9.19-28.52,18.23-42.71,27.46-14.93,9.72-30.45,10.86-45.85,2s-22.57-22.65-21-40.63c1.67-19.43,2.92-38.91,5.06-58.29C530.56,251.41,545.93,238.3,566.54,236.75Zm53.38,69.49-55.26-33.53c-2,22-4.2,41.29-5.32,60.6-.34,5.89,4.38,8.64,9.95,5.17C585.46,328.44,601.41,318.07,619.92,306.24Z" transform="translate(-70.64 -186.08)"/></svg>