<svg id="Capa_1" data-name="Capa 1" xmlns="http://www.w3.org/2000/svg" viewBox="0 0 961.73 961.65"><path d="M58.16,894.05c5-14,8.18-29.13,15.37-41.95C101.34,802.47,162,782.71,214,805.05c2.57,1.1,5.19,2.09,8.67,3.49,1.28-2.84,2.68-5.46,3.68-8.22q68-186.73,135.69-373.59c1.8-5,1.47-11.79-.35-16.86C338,344,313.84,278.3,290,212.5,268.06,152.1,293.87,90,350.55,66.32c13.69-5.72,21.79-2.26,27,11.94,12.7,34.6,25.25,69.25,38.53,105.71,1.93-4.89,3.31-8.16,4.53-11.5Q437.49,126.24,454.32,80c6.07-16.6,13.25-19.71,29.37-12.8,53.45,22.89,80.2,83,60.54,140-20.18,58.48-41.77,116.49-63.66,174.35-3.05,8.07-11.32,14.17-18.43,22.7l147,403.86c9.4-3.09,18.06-6.57,27-8.79,82.93-20.5,157.56,57.38,133.8,139.47a111.58,111.58,0,0,1-100.06,80.78c-44.79,3.1-92.1-24.71-109.46-66.49-13.9-33.44-25.54-67.82-38.18-101.79-1.18-3.17-2.33-6.35-3.81-10.4-13.77,4.94-26.87,9.76-40.06,14.29-3.78,1.3-8,2.75-11.78,2.36-7.51-.76-12.69-5.28-13.87-13.07-1.32-8.69,2.93-14.68,10.7-17.72,14.24-5.55,28.67-10.59,44-16.21-30.22-83.11-60.27-165.77-91.3-251.1-31,85.14-61.08,167.84-91.37,251,14.76,5.44,29.09,10,42.68,16.13,5,2.25,10.34,7.79,11.7,12.85,3.16,11.81-8,21.11-20.23,17.29-14.87-4.63-29.41-10.3-45-15.84-2.64,7-5.2,13.6-7.67,20.25C295,891.62,285,922.63,272.12,952.43c-30.35,70.45-122.21,89.41-178.24,37.34-17.88-16.62-29-37.42-33.82-61.45a58.82,58.82,0,0,0-1.9-6.1Zm294-792c-2.36,1.35-3.48,1.87-4.48,2.57-30.86,21.59-41.32,58.85-27.17,97.75Q434.91,516.87,549.41,831.3C562.78,868,575.29,905.07,590.52,941c16.37,38.56,66.5,57.36,103.84,40.09,29.21-13.51,46.42-36.66,47.78-69.54C743.5,878.84,729.41,853.59,701,838s-57.15-13.76-84.24,4.47c-17,11.43-25.85,8.77-33-10.75Q508.8,626,433.91,420.37c-8.93-24.5-5.71-35,15.77-50.29Q401.19,236.75,352.18,102.06Zm30.07,364.1c-2.14,5.6-3.51,9.06-4.78,12.56Q312.86,656.1,248.26,833.49c-6.24,17.13-16,20.21-30.76,10-37.18-25.75-83.6-19.29-111,16.59-17.54,23-21.38,49.21-10.75,76.26,10.83,27.55,31,45.24,60.81,49.7,40.32,6,75.94-15.77,90.82-56.39Q322.64,724.22,397,518.48c1.1-3,1.63-7,.65-9.88C393.11,495,387.93,481.62,382.25,466.16Zm98.84-363.31a8.44,8.44,0,0,0-1.67,2.1q-22.28,61.12-44.34,122.31a14.25,14.25,0,0,0,.2,8.87c10,27.91,20.17,55.74,30.34,83.58a32.48,32.48,0,0,0,2.32,3.89c4.3-11.76,8.12-21.92,11.75-32.14,12.4-35,26-69.6,36.72-105.09C525.85,155.11,508.68,117.7,481.09,102.85Z" transform="translate(-58.16 -58.16)"/><path d="M948.52,58.16c19.61,4.25,37.33,11.79,50.94,27.4,13.83,15.87,20.15,34.51,20.17,55.12q.25,237.08.06,474.15c0,14.35-5.75,20-19.82,20.21-3.68.06-7.36,0-12.13,0,0,11.14-.27,21.38.23,31.58.09,2,2.78,4.53,4.9,5.68,18.35,9.94,26.81,25.56,26.84,46.05.06,51.95.42,103.91-.08,155.86-.77,79.56-61.68,143.13-138.74,145.52-15.29.47-21.34-5-21.43-20.28-.17-27.85-.06-55.71-.06-83.56q0-384.49-.06-769c0-21.88,4-42.15,18.6-59.44,12.37-14.7,27.92-23.72,46.59-27.67a51.56,51.56,0,0,0,5.21-1.65ZM987.7,410.94V237.76c0-32.24.31-64.48-.09-96.7-.45-36.66-32.65-59.77-65.36-47.41-19.19,7.25-30.59,24-30.63,47q-.25,163.83,0,327.66a47.84,47.84,0,0,0,1,6.67H987V443c-15,0-29.36.14-43.72,0-12.63-.16-19.74-6.39-19.46-16.6.26-9.93,6.89-15.3,19.47-15.41C957.67,410.84,972,410.94,987.7,410.94ZM892.16,985.81a28.75,28.75,0,0,0,4.33,0c45.23-7.91,86.52-48.35,89.07-94.28,3.23-58.32,1.72-116.91,1.93-175.38,0-8.12-4.29-13.9-13-16.16-17.9-4.68-18.86-6.25-18.87-25.37q0-19.5,0-39h-63.5Zm95-447.2v-31H892.3v31ZM892,602.51h95V571.68H892Z" transform="translate(-58.16 -58.16)"/><path d="M710.92,908a49.15,49.15,0,0,1-42.85,47.56c-23,3-46-12.71-51.89-35.45-6.09-23.57,6.07-47.91,28.35-56.72,9.12-3.61,17.85-.66,21.6,7.31,3.54,7.5.65,16.21-7,21-2.11,1.32-4.55,2.23-6.41,3.83-6.2,5.31-8,12-4.26,19.33,3.46,6.82,9.46,10.07,17.12,8.32,7.9-1.8,12.36-7.06,12.51-15.35,0-2.78-.67-5.57-1-8.36-1-8.6,3.61-15.7,11.59-17.89a15.62,15.62,0,0,1,18.8,10C709.29,896.89,709.82,902.56,710.92,908Z" transform="translate(-58.16 -58.16)"/><path d="M166.48,955.85c-16.88-1.26-31.94-10.22-40-28.39s-5.54-35.77,7.53-50.76,29.76-20,49.14-14.72c10.19,2.75,15.58,10.41,13.69,19.07-2,9.14-10.19,13.77-21,11.86-10.39-1.85-17.6,1.62-20.61,9.9a15.52,15.52,0,0,0,7.71,19.07c7.43,3.66,14,2.07,19.34-4.1,1.82-2.11,3-4.77,4.58-7.07,5.06-7.31,13.08-9.61,20.38-6,7.77,3.9,10.7,12,7.48,20.74C208,943.53,189,956.28,166.48,955.85Z" transform="translate(-58.16 -58.16)"/><path d="M923.61,826.85c0-14.69-.12-29.37,0-44.05.14-12.2,6-19,15.85-19s16,6.94,16.09,19q.31,45,0,89.95c-.06,8.33-2.84,15.43-12,17.88-7.62,2-13.82-.49-17.49-7.19-1.83-3.34-2.31-7.72-2.38-11.65C923.46,856.83,923.61,841.84,923.61,826.85Z" transform="translate(-58.16 -58.16)"/></svg>