<svg id="Capa_1" data-name="Capa 1" xmlns="http://www.w3.org/2000/svg" viewBox="0 0 1005.71 1006.11"><path d="M914.31,1044c-9.83-7.25-11.79-17.11-12.1-29-1.8-68.26,9.31-134.87,22.83-201.41,13.05-64.23,19.13-129.43,22.63-194.85.14-2.52,0-5,0-8.59-3.3,1.49-5.63,2.45-7.88,3.57-37,18.52-79.35,12.38-108.86-16.44-4.91-4.79-9.2-5.71-15.57-4.72Q689.83,612.05,564.21,631,445.91,649,327.57,667a73,73,0,0,0-7.66,2.18c3.22,22.23,5.69,44.29,9.71,66.07,10.08,54.65,22.94,108.88,30.68,163.84,5.77,41,5.41,82.83,7.5,124.3.54,10.74-7.21,16.08-15.47,20.64H342.5c-12.34-5.57-15.68-15.2-15.95-28.46-.68-32.69-1.07-65.61-5.27-97.95-4.87-37.54-13.67-74.56-20.83-111.8-2.27-11.84-4.74-23.65-7.12-35.47a16.81,16.81,0,0,0-3.56,7.75c-14,72.9-27.66,145.86-42,218.68-3.2,16.22-1.22,34.44-15.3,47.25H210.85c-10.28-9.68-9.93-21.21-7.44-34.1C213.33,958.53,222.56,907,232,855.57a35.94,35.94,0,0,0,0-5.59L108.4,817.56c-2.66,15.14-4.06,29.8-8,43.76-6.66,23.88-14.35,47.5-22.67,70.85-4.13,11.59-16,15.75-26.63,11.37s-15.92-15.66-11-26.76c22.74-51.74,28.16-106.31,29.18-162,2.22-121.47,5.8-242.92,8.17-364.4.78-39.49,5.4-77.83,25.69-112.52C140.93,213.2,197.43,180.15,272.26,175c61.62-4.25,120.7-20.15,173.48-53.56,13.17-8.33,24.56-20.65,34-33.21,5.83-7.75,7.3-19.26,9.21-29.37,2.52-13.41,11-22,22.67-20.72,11.89,1.29,19.48,11.19,18.65,24.6-2,32.8-17.92,58.29-42.35,79-30.52,25.91-66.6,41.21-104.33,52.81-19,5.85-38.45,10.59-57.93,14.74C317.92,211,316,214,316,221.53q.39,140,.16,280a114.37,114.37,0,0,1-.32,13.74c-1.42,11.55-10.49,19.59-21.13,19.16-10.43-.42-18.52-8.32-19.7-19.59a123.07,123.07,0,0,1-.31-12.75q0-136.08,0-272.17V216.69c-23.26-.07-44.2,4.62-63.64,14.28-55.87,27.77-87.92,72.69-90.9,135.4-3.15,66.06-3.84,132.24-5.56,198.37-.07,2.87.25,5.74.43,9.42l89-12.45Q292,549.4,379.94,537.05q93.75-13.18,187.49-26.43Q669,496.32,770.5,482.09c14.9-2.09,29.89-3.65,44.65-6.45,4.23-.8,8.36-4.58,11.58-7.91,26.1-27.06,57.52-37.21,93.83-27.65s60.22,34,67.11,70.71c4.22,22.52,2.58,46.27,2.4,69.45-.17,21.93-2.1,43.83-2.77,65.75a59.28,59.28,0,0,0,2.19,18.28,1548.78,1548.78,0,0,1,52.59,259.26c.25,2.2,1.26,4.32,1.92,6.48V941.8c-7.66,13.11-15,17.75-25.4,15.28-12.28-2.92-15.37-12.45-16.9-23.59-4.59-33.35-9.28-66.69-14.62-99.93-3.14-19.54-7.61-38.87-11.48-58.3C971.15,790.2,969.07,805,966,819.6,952,885,940.9,950.69,943.67,1017.93c.48,11.72-3.59,20.26-13.64,26.07ZM804.4,552.69c-.86-11.68-1.64-22.27-2.45-33.33L267.3,594.42c1.22,13.5,2.34,26,3.57,39.65ZM270.91,676.76a14.09,14.09,0,0,0-3.32-.41c-49.79,7.53-99.56,15.18-149.37,22.54-6.08.9-7.13,4.09-7.19,9.26-.22,19.65-.4,39.3-1.19,58.93-.27,6.64,2.12,8.94,8.33,10.49,29.49,7.36,58.84,15.28,88.24,23,11.26,3,22.53,5.85,34.05,8.84C250.76,764.53,260.76,721,270.91,676.76ZM948.4,531.63c.8-29.37-21.54-53.16-50.49-53.78a53.1,53.1,0,0,0-54.13,51.94c-.52,28.26,22.31,52.11,50.81,53.09C924.52,583.91,947.58,562,948.4,531.63ZM113.32,658.05l116.51-17.77c-1.25-13.85-2.4-26.63-3.61-40.12-36.67,5.18-71.91,10.06-107.09,15.36-2.19.33-5.45,3.81-5.55,5.94C113,633.14,113.32,644.85,113.32,658.05Z" transform="translate(-38.29 -37.89)"/><path d="M1044,204.78c-6.6,12-16.23,16.24-30.08,14-17.38-2.75-35-3.82-54.3-5.79v11.46q0,97.26-.06,194.54c0,17.64-15.13,28.19-29.52,20.77-8.44-4.34-11.6-11.83-11.58-21.13.1-34.06,0-68.12,0-102.18,0-34.39-.29-68.79.22-103.17.11-7.87-2.69-10.77-9.79-12.39-10.46-2.39-20.7-5.73-32.82-9.17v12.08q0,104.64,0,209.28c0,18.92-7,28.78-20.39,29-13.75.21-21.09-10-21.09-29.3,0-76-.12-152,.18-227.95,0-7.68-2.37-11.5-9.22-14.93-25.69-12.87-49-29.06-66.1-52.77-12.2-16.9-19.12-35.77-19.5-56.65-.3-16.78,15.61-28,29.14-20,5.33,3.17,10.77,10.72,11.23,16.66,1.79,23,12.86,40.12,30,54.18,26.55,21.82,57.83,34.19,90.09,44.36a482.59,482.59,0,0,0,115.37,21.55c12.27.76,22.12,4.49,28.22,15.68Z" transform="translate(-38.29 -37.89)"/><path d="M205.56,394.61a20.46,20.46,0,1,1,.12,40.92,20.46,20.46,0,0,1-.12-40.92Z" transform="translate(-38.29 -37.89)"/><path d="M205.56,310.9a20.55,20.55,0,0,1,20.66,20.27c0,10.93-9.61,20.65-20.53,20.68a20.64,20.64,0,0,1-20.39-20.56A19.84,19.84,0,0,1,205.56,310.9Z" transform="translate(-38.29 -37.89)"/><path d="M206,519.25a19.89,19.89,0,0,1-20.64-20,20.56,20.56,0,0,1,20-20.92c11-.2,20.73,9.27,20.93,20.27A20.57,20.57,0,0,1,206,519.25Z" transform="translate(-38.29 -37.89)"/></svg>