<svg id="Capa_1" data-name="Capa 1" xmlns="http://www.w3.org/2000/svg" viewBox="0 0 816.44 923.71"><path d="M557.67,434.88c-30.15-25.87-59.41-51-88.72-76.11-14.89-12.75-14.17-22.34,2.62-33L852.74,84c1.94-1.23,3.85-2.49,5.81-3.68,7.33-4.42,14.74-5,20.9,1.53,6.52,6.87,5.83,14.58.13,21.76q-26,32.78-52.2,65.41-65.53,81.9-131.07,163.8c-2.1,2.63-4,5.39-6.63,8.85l68.84,59.13c8.7,7.47,17.49,14.84,26.08,22.43,13.36,11.82,13.15,20.45-.82,31.63q-102.46,82-205,164c-2.64,2.12-5.19,4.35-8.64,7.24,3.09,2.87,5.65,5.47,8.44,7.8,20.82,17.4,41.74,34.68,62.53,52.12,19.51,16.38,19,24.64-2.51,37.74q-145.72,88.86-291.5,177.65-74.34,45.31-148.7,90.59c-3.58,2.19-7.08,4.56-10.84,6.41-7.73,3.8-15.09,3.24-20.48-4-5-6.64-4.17-13.64,1.1-20,3.18-3.82,6.64-7.39,10-11L404.77,716.89c3.86-4.2,7.65-8.47,12.34-13.65-19.38-16.2-38.28-32-57.19-47.79-6.45-5.39-13-10.68-19.41-16.1-12.81-10.8-12.76-20.3.35-30.79q91.27-73.09,182.61-146.09C534.74,453.44,546,444.34,557.67,434.88Zm196.5,3.43c-31.62-27.13-61.74-53-91.89-78.84-13-11.12-13.6-17.21-2.77-30.8q34.32-43,68.76-85.94,32.34-40.42,64.63-80.89l-1.56-1.77L500.65,344.46c4.31,3.81,7.62,6.83,11,9.74q36.57,31.33,73.17,62.63c17.78,15.21,17.79,22.48-.09,36.78Q482.68,535.24,380.6,616.86c-2.88,2.31-5.64,4.77-8.93,7.57,25,20.82,49,40.87,73.07,61,13.94,11.64,14.36,18.56,1.88,32.16Q362.86,808.77,279.09,900c-2.1,2.28-3.91,4.84-5.86,7.27l1.47,1.53,337.73-205.9c-24.7-20.63-48.45-40.42-72.16-60.27-15.51-13-15.39-20.78.68-33.65q59.94-48,120-95.91C691.64,488.5,722.28,463.88,754.17,438.31Z" transform="translate(-132.93 -76.95)"/><path d="M792.65,766.23c3.2-6.21,5.57-11.39,8.45-16.28,6.79-11.51,18.9-12.82,27.19-2.28,14.16,18,27.85,36.39,41.29,54.93,5.74,7.91,4.07,17.37-3.17,22.22-8,5.36-15.53,3.76-21.34-3.41-9.06-11.19-17.57-22.82-26.91-35.07-3.82,7.29-6.58,13.54-10.19,19.25-6.81,10.74-19.37,11.64-26.42,1.07-16.94-25.39-33.22-51.23-49.4-77.12-5-8-3-15.56,4.66-21,7.19-5.12,16.31-3.28,21.86,5C770.06,730.55,780.9,747.93,792.65,766.23Z" transform="translate(-132.93 -76.95)"/><path d="M340.44,355.73c-6.36,4.47-11.17,8.09-16.21,11.36-12.71,8.25-24.64,2.68-26.18-12.46q-4.41-43.26-8.28-86.56c-1-10.68,4.67-17.95,13.92-18.72,9.49-.79,16.06,5,17.18,15.75,2.05,19.62,3.84,39.26,5.94,61,6-4.26,10.34-7.66,15-10.6,11.39-7.21,22.48-3,25.1,10.36,4.35,22.05,8.12,44.23,11.5,66.46,1.69,11.05-3.47,18.2-12.55,19.74-8.69,1.48-15.72-4.14-17.92-15C345.3,384,343.15,370.84,340.44,355.73Z" transform="translate(-132.93 -76.95)"/><path d="M851.23,571c-3.94-6-7.27-10.55-10-15.42-6.37-11.17-2.08-22.22,10.59-24.38,23.33-4,46.81-7.19,70.32-9.8,8.46-1,14.59,4.1,16.08,13s-3.73,16.27-13.58,17.93c-13.52,2.28-27.15,3.87-42.79,6,3.46,5.54,6.29,10.16,9.21,14.72,9.43,14.72,3.71,26.72-13.4,27.79q-41.19,2.57-82.39,4.88c-13.78.75-21.26-4.39-21.74-14.46-.45-9.44,6.33-15.35,19.28-16.32C811.71,573.55,830.66,572.36,851.23,571Z" transform="translate(-132.93 -76.95)"/><path d="M273.7,523.58c.51,8.82,1.34,15.25,1.16,21.65-.35,12.54-10.87,19.89-22.09,14.56-27.54-13.08-54.78-26.8-82-40.6-8.43-4.28-10.55-11.86-7.1-20.45,3.23-8,12.36-11.25,21.39-7.08,14.53,6.71,28.7,14.19,43,21.3,3.69,1.82,7.46,3.44,12.24,5.64,0-6.62-.06-12.14,0-17.67.18-13.6,9.43-20.53,22.19-15.66,21,8,41.81,16.57,62.53,25.31,10,4.24,13.73,12.74,9.53,21.12-4.46,8.91-11.77,11.38-21.07,7.68Z" transform="translate(-132.93 -76.95)"/><path d="M618.26,860a47.18,47.18,0,0,1,46.65,46.68c.11,25.89-21.51,47.45-47.37,47.25s-47-21.9-46.55-48A47,47,0,0,1,618.26,860Zm-.76,31.59a15.33,15.33,0,1,0,15.7,14.63A14.91,14.91,0,0,0,617.5,891.59Z" transform="translate(-132.93 -76.95)"/><path d="M462.15,155.68c-10.55,6.44-18.83,25.84-33.89,11.13s3.29-23.61,10.81-34.41c-7.2-10.61-26.55-19.74-10.25-34.61,14.76-13.47,23,4.55,33.22,11.76,10.34-6.83,18.68-25.8,33.76-11.3s-3,23.58-10.56,34.14c7,10.79,26.31,19.91,10.15,34.87C480.55,181,472.57,162.35,462.15,155.68Z" transform="translate(-132.93 -76.95)"/><path d="M932.4,712.59c-8.84-.17-16.58-8.22-16.4-17.07s8.08-16.61,17-16.42a17.09,17.09,0,0,1,16.39,17C949.19,705,941.23,712.76,932.4,712.59Z" transform="translate(-132.93 -76.95)"/><path d="M149.82,240.66a16.64,16.64,0,1,1-16.89,16.68A16.9,16.9,0,0,1,149.82,240.66Z" transform="translate(-132.93 -76.95)"/><path d="M213.12,726.84a16.17,16.17,0,0,1-16.5,16.69c-9.13,0-16-6.5-16.43-15.53-.44-9.54,6.4-17,15.84-17.29A16.35,16.35,0,0,1,213.12,726.84Z" transform="translate(-132.93 -76.95)"/><path d="M917.73,366.36c.29,9.6-6.54,16.79-16.11,16.94S885,376.5,885,366.92a16,16,0,0,1,15.54-16.39C910.05,350.1,917.45,356.89,917.73,366.36Z" transform="translate(-132.93 -76.95)"/><path d="M633.58,508.05c-3.59-2.91-9.62-5.53-11.41-9.9s-1.52-12.74,1.45-15.6c15.65-15,32.09-29.26,49-42.83,6.16-4.94,14-3.43,19.5,2.95s6.1,14.17.15,19.68c-15.92,14.73-32.66,28.59-49.26,42.57C641.17,506.47,638.13,506.6,633.58,508.05Z" transform="translate(-132.93 -76.95)"/><path d="M577.86,551.43c-2.22-1.68-8.59-4.14-10.24-8.42-1.85-4.78-1.51-13.09,1.58-16.56A93.56,93.56,0,0,1,594,506.82c4-2.16,12.39-.48,16.21,2.62,3.41,2.78,4.82,10.06,4.35,15.09C613.85,532.33,589,551.18,577.86,551.43Z" transform="translate(-132.93 -76.95)"/></svg>