<svg id="Capa_1" data-name="Capa 1" xmlns="http://www.w3.org/2000/svg" viewBox="0 0 746.53 897.54"><path d="M766.47,550.55H350.3c-8.48,40.25-17,80.2-25.32,120.18Q295,814.3,265.1,957.88c-4.36,20.87-15.1,29.43-36.65,29.53-8.35,0-16.7.1-25,0-23.61-.32-37.09-17-32.21-40Q208,773.95,245,600.47C272.89,469.26,300.46,338,329,206.89c13.07-60,62.35-98.24,123.92-98.64,4.93,0,10.06.84,14.75-.24,4.94-1.15,9.45-4.12,14.14-6.32,8.29-3.88,16.51-11,24.85-11.14,59.18-1,118.38-.51,177.58-.53,10.54,0,18.68,4.34,25.9,12,3.05,3.27,8.47,5.43,13.06,5.94,15.76,1.76,32.11.52,47.38,4.08C826.09,125,862,172.39,862.07,231.17q.18,274.4-.1,548.8c0,9.36,1.84,15.39,10.55,21.2,37.32,24.92,52.82,71.42,39.53,114.3s-53.73,72.26-98.73,71.91c-43.89-.33-83.62-29.74-96.71-71.58-13.56-43.33,2.26-90,40.08-115.12,7.73-5.14,10-10.4,10-19.15-.31-72.49-.18-145-.18-217.47Zm0-78.42V459.41c0-70.58-.82-141.17.32-211.74.65-40-10.48-45.68-45-43.56-3.86.24-8.66,2.37-11.12,5.24-7.18,8.38-15.7,12.79-26.69,12.78-58.8,0-117.61.22-176.41-.32-7.06-.07-17.17-2.25-20.52-7.13-8.69-12.63-20.27-10.81-32.08-10.77-22.79.09-34.28,9.42-38.92,31.58q-19.23,91.8-38.43,183.58c-3.66,17.56-7.11,35.16-10.73,53.06ZM474.54,131c-6.53,0-11.82,0-17.11,0-57.35,0-96.05,31.68-107.94,87.62Q289.8,499.44,229.88,780.19q-18.12,85.08-36.1,170.17c-2.26,10.72.3,14,11.09,14.24,7.59.18,15.21-.39,22.76.15,9.33.67,13.43-3.13,15.35-12.39q42.95-207.06,86.45-414,32.64-155.79,65.5-311.53c6.11-28.83,27.45-45.43,56.95-45.67,7.46-.06,14.91,0,22.66,0Zm242.07,50.11c5.49,0,10,.35,14.43-.06,36.73-3.38,58.88,22,58.67,58.21-1,177.24-.46,354.5-.46,531.75v12.51h50.1v-10q0-270.43,0-540.86c0-3.42,0-6.84-.18-10.25C835.57,166.71,786.5,120,716.61,132.84Zm18,703.37c-.17,43.88,35.5,79.93,79.25,80.11s79.91-35.52,80.08-79.29c.16-43.94-35.42-79.9-79.26-80.08S734.8,840.72,734.63,884.5ZM643.81,199.31c14,0,27.16.12,40.34-.05,7.34-.09,9.51-4.79,9.48-11.41q-.14-31.87,0-63.73c0-7.43-3.06-11.34-10.79-11.33q-87,.06-174.08,0c-7.61,0-11.05,3.54-11,11.1.09,21.62-.33,43.25.4,64.85.12,3.57,4.79,9.77,7.73,10,13.78,1.07,27.68.48,42.32.48V175h22.9v23.77H620.9V175.13h22.91ZM757.49,496.09H361.65c-2.06,10.16-4.1,20.24-6.18,30.52h402Z" transform="translate(-170.21 -89.93)"/><path d="M814.47,855.39A29.54,29.54,0,1,1,784.78,885,29.68,29.68,0,0,1,814.47,855.39Zm-.19,20.43c-3,4-6.29,6.52-6.14,8.81s3.6,4.59,5.61,6.87c2.37-2.29,6-4.25,6.69-7C820.93,882.74,817.28,879.84,814.28,875.82Z" transform="translate(-170.21 -89.93)"/></svg>