<svg id="Capa_1" data-name="Capa 1" xmlns="http://www.w3.org/2000/svg" viewBox="0 0 1016.1 1017.6"><path d="M560.69,29.38l9,2.81c0,7.94,0,15.84,0,23.75.24,54-.36,108,1,162,1,40.66,21.28,72.45,52.54,97.2,10.82,8.57,23.28,15.11,35.11,22.38,22.19,13.65,32.67,33.33,29.87,59.29-2.59,24.07-16.23,40.31-38.62,48.43-23.68,8.59-45.81,4.36-62.74-14.52C562,403,519.66,402.12,492.21,431c-31,32.7-86.71,18.12-99.24-24.47-8-27.32,4-55.31,30.82-69.41,21.37-11.25,40.74-24.55,55.24-44.31,22.26-30.33,31-64.62,30.92-101.69q-.1-74.07,0-148.15V32.19l9-2.81Z" transform="translate(-30.79 -29.38)"/><path d="M629.34,1038.72V1028c0-50.42.59-100.83-.21-151.23-.56-35.8,15.55-61,46-77.46,26.06-14.06,47.57-31.95,61.26-58.84,36.28-71.26-10.82-160.37-90.18-170C601.37,565.06,578,573.93,541.83,610c-8.14-6.65-15.91-13.84-24.48-19.87-53.64-37.71-137.71-18.86-170.54,38-33.26,57.63-12.4,132.53,46.79,163.52,25.44,13.32,44.79,30.7,52,59A137.55,137.55,0,0,1,450,883c.46,49.74.22,99.49.2,149.23,0,2-.31,3.9-.47,5.87-191.42-26.84-408.4-208.79-418.6-479.77C20.41,272.78,241.31,70.25,449.49,39.25a20.65,20.65,0,0,1,.7,3.77c-.16,53.72.61,107.47-.89,161.15-1,35.32-17.67,62.15-50.27,78.58-35.51,17.91-58.34,46.45-65.94,85.85-12.89,66.88,31.74,127.69,99.29,136.78,33.44,4.51,64-1.21,90.53-22.95C528.26,478.05,533,472.89,537,469c13.89,9.49,27.09,20.77,42.15,28.4,72.39,36.67,164.34-17.1,168.74-98.08,2.78-51.36-18.6-89.8-63-115.1-19.32-11-38.08-22.6-47.46-43.52a87.06,87.06,0,0,1-7.69-33.43c-.78-54.38-.36-108.78-.33-163.17A38.28,38.28,0,0,1,630,39.3C826.15,68.22,1035.63,251,1046.45,517.68,1057.83,798.14,846.51,1004.45,629.34,1038.72Z" transform="translate(-30.79 -29.38)"/><path d="M569.66,1047H509.94c0-5,0-8.85,0-12.7-.32-56,1.31-112.11-1.53-168-2.64-52.09-27-93.39-73.67-119.7-5.76-3.25-11.79-6.11-17.26-9.8-29.14-19.65-35.71-59.14-14.36-85.33C425.57,623.9,467.25,620.85,492,646c19.83,20.21,42.39,28.21,69.21,18.19,8.92-3.34,17.22-9.88,24.18-16.64,18.79-18.22,40.24-24.15,64.67-15,22.65,8.44,36.27,25.08,38.34,49.71,2.23,26.57-9.11,46.36-32.19,59-19.91,10.92-38.57,23.21-53.55,40.53-22.94,26.5-33.16,57.42-33,92.27.24,53,.06,106.07.06,159.11Z" transform="translate(-30.79 -29.38)"/></svg>